<svg width="1440" height="90" viewBox="0 0 1440 90" fill="none" xmlns="http://www.w3.org/2000/svg">
<path fill-rule="evenodd" clip-rule="evenodd" d="M1440 90L1379.72 83.5345C1319.44 76.8103 1200 63.3621 1079.44 63.3621C960 63.3621 839.442 76.8103 720 80.1724C599.442 83.5345 480 76.8103 359.442 70.0862C240 63.3621 119.442 56.6379 60.279 53.2759L-7.15256e-05 50.1724V0H60.279C119.442 0 240 0 359.442 0C480 0 599.442 0 720 0C839.442 0 960 0 1079.44 0C1200 0 1319.44 0 1379.72 0H1440V90Z" fill="#FAD2E1"/>
</svg>
