<svg width="27" height="27" viewBox="0 0 27 27" fill="none" xmlns="http://www.w3.org/2000/svg">
<rect width="27" height="27" rx="5" fill="#FEF3E2"/>
<path d="M11.8333 18C12.0543 18 12.2663 17.921 12.4226 17.7803C12.5789 17.6397 12.6667 17.4489 12.6667 17.25V12.75C12.6667 12.5511 12.5789 12.3603 12.4226 12.2197C12.2663 12.079 12.0543 12 11.8333 12C11.6123 12 11.4004 12.079 11.2441 12.2197C11.0878 12.3603 11 12.5511 11 12.75V17.25C11 17.4489 11.0878 17.6397 11.2441 17.7803C11.4004 17.921 11.6123 18 11.8333 18ZM20.1667 9H16.8333V8.25C16.8333 7.65326 16.5699 7.08097 16.1011 6.65901C15.6323 6.23705 14.9964 6 14.3333 6H12.6667C12.0036 6 11.3677 6.23705 10.8989 6.65901C10.4301 7.08097 10.1667 7.65326 10.1667 8.25V9H6.83333C6.61232 9 6.40036 9.07902 6.24408 9.21967C6.0878 9.36032 6 9.55109 6 9.75C6 9.94891 6.0878 10.1397 6.24408 10.2803C6.40036 10.421 6.61232 10.5 6.83333 10.5H7.66667V18.75C7.66667 19.3467 7.93006 19.919 8.3989 20.341C8.86774 20.7629 9.50363 21 10.1667 21H16.8333C17.4964 21 18.1323 20.7629 18.6011 20.341C19.0699 19.919 19.3333 19.3467 19.3333 18.75V10.5H20.1667C20.3877 10.5 20.5996 10.421 20.7559 10.2803C20.9122 10.1397 21 9.94891 21 9.75C21 9.55109 20.9122 9.36032 20.7559 9.21967C20.5996 9.07902 20.3877 9 20.1667 9ZM11.8333 8.25C11.8333 8.05109 11.9211 7.86032 12.0774 7.71967C12.2337 7.57902 12.4457 7.5 12.6667 7.5H14.3333C14.5543 7.5 14.7663 7.57902 14.9226 7.71967C15.0789 7.86032 15.1667 8.05109 15.1667 8.25V9H11.8333V8.25ZM17.6667 18.75C17.6667 18.9489 17.5789 19.1397 17.4226 19.2803C17.2663 19.421 17.0543 19.5 16.8333 19.5H10.1667C9.94565 19.5 9.73369 19.421 9.57741 19.2803C9.42113 19.1397 9.33333 18.9489 9.33333 18.75V10.5H17.6667V18.75ZM15.1667 18C15.3877 18 15.5996 17.921 15.7559 17.7803C15.9122 17.6397 16 17.4489 16 17.25V12.75C16 12.5511 15.9122 12.3603 15.7559 12.2197C15.5996 12.079 15.3877 12 15.1667 12C14.9457 12 14.7337 12.079 14.5774 12.2197C14.4211 12.3603 14.3333 12.5511 14.3333 12.75V17.25C14.3333 17.4489 14.4211 17.6397 14.5774 17.7803C14.7337 17.921 14.9457 18 15.1667 18Z" fill="black"/>
</svg>
