<svg width="27" height="27" viewBox="0 0 27 27" fill="none" xmlns="http://www.w3.org/2000/svg">
<rect width="27" height="27" rx="5" fill="#FEF3E2"/>
<path d="M19.7459 13.5022C19.547 13.5022 19.3563 13.5812 19.2157 13.7218C19.0751 13.8624 18.9961 14.0531 18.9961 14.252V18.7507C18.9961 18.9495 18.9171 19.1402 18.7765 19.2808C18.6359 19.4214 18.4452 19.5004 18.2463 19.5004H7.74935C7.55049 19.5004 7.35978 19.4214 7.21917 19.2808C7.07856 19.1402 6.99957 18.9495 6.99957 18.7507V8.2537C6.99957 8.05484 7.07856 7.86413 7.21917 7.72352C7.35978 7.58291 7.55049 7.50391 7.74935 7.50391H12.248C12.4469 7.50391 12.6376 7.42492 12.7782 7.28431C12.9188 7.14369 12.9978 6.95298 12.9978 6.75413C12.9978 6.55528 12.9188 6.36457 12.7782 6.22395C12.6376 6.08334 12.4469 6.00435 12.248 6.00435H7.74935C7.15278 6.00435 6.58065 6.24133 6.15882 6.66317C5.73698 7.085 5.5 7.65713 5.5 8.2537V18.7507C5.5 19.3472 5.73698 19.9193 6.15882 20.3412C6.58065 20.763 7.15278 21 7.74935 21H18.2463C18.8429 21 19.415 20.763 19.8368 20.3412C20.2587 19.9193 20.4957 19.3472 20.4957 18.7507V14.252C20.4957 14.0531 20.4167 13.8624 20.276 13.7218C20.1354 13.5812 19.9447 13.5022 19.7459 13.5022ZM8.49913 14.072V17.2511C8.49913 17.4499 8.57813 17.6407 8.71874 17.7813C8.85935 17.9219 9.05006 18.0009 9.24891 18.0009H12.428C12.5267 18.0014 12.6245 17.9825 12.7158 17.9452C12.8072 17.9079 12.8903 17.8529 12.9603 17.7834L18.1488 12.5874L20.2782 10.503C20.3485 10.4333 20.4043 10.3504 20.4423 10.259C20.4804 10.1677 20.5 10.0697 20.5 9.9707C20.5 9.87172 20.4804 9.77372 20.4423 9.68235C20.4043 9.59098 20.3485 9.50805 20.2782 9.43835L17.0991 6.22178C17.0294 6.15151 16.9465 6.09573 16.8551 6.05766C16.7638 6.0196 16.6658 6 16.5668 6C16.4678 6 16.3698 6.0196 16.2784 6.05766C16.1871 6.09573 16.1041 6.15151 16.0344 6.22178L13.9201 8.34367L8.71657 13.5397C8.64708 13.6097 8.5921 13.6928 8.55479 13.7842C8.51747 13.8755 8.49856 13.9733 8.49913 14.072ZM16.5668 7.81132L18.6887 9.93321L17.624 10.9979L15.5021 8.87601L16.5668 7.81132ZM9.9987 14.3794L14.4449 9.93321L16.5668 12.0551L12.1206 16.5013H9.9987V14.3794Z" fill="black"/>
</svg>
