<svg width="19" height="18" viewBox="0 0 19 18" fill="none" xmlns="http://www.w3.org/2000/svg">
<path d="M11.5353 12.5356V14.4642C11.5353 14.7321 11.4363 14.9598 11.2384 15.1473C11.0405 15.3348 10.8002 15.4285 10.5174 15.4285H8.48172C8.19899 15.4285 7.95866 15.3348 7.76074 15.1473C7.56283 14.9598 7.46387 14.7321 7.46387 14.4642V12.5356C7.46387 12.2678 7.56283 12.0401 7.76074 11.8526C7.95866 11.6651 8.19899 11.5714 8.48172 11.5714H10.5174C10.8002 11.5714 11.0405 11.6651 11.2384 11.8526C11.4363 12.0401 11.5353 12.2678 11.5353 12.5356ZM11.5353 7.39279V9.32136C11.5353 9.58922 11.4363 9.81689 11.2384 10.0044C11.0405 10.1919 10.8002 10.2856 10.5174 10.2856H8.48172C8.19899 10.2856 7.95866 10.1919 7.76074 10.0044C7.56283 9.81689 7.46387 9.58922 7.46387 9.32136V7.39279C7.46387 7.12493 7.56283 6.89725 7.76074 6.70975C7.95866 6.52225 8.19899 6.4285 8.48172 6.4285H10.5174C10.8002 6.4285 11.0405 6.52225 11.2384 6.70975C11.4363 6.89725 11.5353 7.12493 11.5353 7.39279ZM11.5353 2.24993V4.1785C11.5353 4.44636 11.4363 4.67404 11.2384 4.86154C11.0405 5.04904 10.8002 5.14279 10.5174 5.14279H8.48172C8.19899 5.14279 7.95866 5.04904 7.76074 4.86154C7.56283 4.67404 7.46387 4.44636 7.46387 4.1785V2.24993C7.46387 1.98207 7.56283 1.75439 7.76074 1.56689C7.95866 1.37939 8.19899 1.28564 8.48172 1.28564H10.5174C10.8002 1.28564 11.0405 1.37939 11.2384 1.56689C11.4363 1.75439 11.5353 1.98207 11.5353 2.24993Z" fill="black"/>
</svg>
