<svg width="24" height="25" viewBox="0 0 24 25" fill="none" xmlns="http://www.w3.org/2000/svg">
<path d="M22.7978 5.4675C22.7954 5.4475 22.7954 5.43 22.7906 5.41C22.7882 5.395 22.7834 5.38 22.781 5.365C22.7762 5.35 22.7714 5.3325 22.7666 5.3175L22.745 5.2725C22.7378 5.26 22.733 5.245 22.7234 5.23C22.7138 5.215 22.7042 5.2025 22.6922 5.1875C22.685 5.18 22.6802 5.1675 22.6706 5.16C22.6706 5.1575 22.6682 5.155 22.6658 5.1525C22.6538 5.14 22.6394 5.13 22.625 5.1175C22.6157 5.10702 22.6052 5.09779 22.5938 5.09C22.5794 5.08 22.565 5.0725 22.5506 5.065C22.5386 5.0575 22.5242 5.0475 22.5122 5.0425C22.4978 5.035 22.481 5.0325 22.4666 5.025C22.4522 5.0225 22.4378 5.015 22.4234 5.0125L22.3802 5.005C22.3634 5.005 22.3466 5.0025 22.3298 5H1.673C1.6514 5 1.6322 5.005 1.613 5.0075C1.601 5.01 1.589 5.01 1.5794 5.0125C1.5602 5.015 1.5434 5.0225 1.5242 5.03C1.5122 5.0325 1.5002 5.0375 1.4906 5.0425C1.4738 5.0475 1.4594 5.0575 1.445 5.0675C1.433 5.075 1.4186 5.08 1.4066 5.09C1.397 5.0975 1.385 5.1075 1.3754 5.1175C1.361 5.13 1.3466 5.14 1.3346 5.1525C1.3322 5.155 1.3298 5.1575 1.3298 5.16C1.3202 5.1675 1.3154 5.1775 1.3082 5.1875C1.2986 5.2025 1.2866 5.215 1.277 5.23C1.2698 5.245 1.2626 5.2575 1.2554 5.2725L1.2338 5.3175C1.229 5.3325 1.2242 5.35 1.2194 5.365C1.217 5.38 1.2122 5.395 1.2098 5.41C1.205 5.43 1.205 5.4475 1.2026 5.4675C1.2026 5.4775 1.2002 5.4875 1.2002 5.5V19.5C1.2002 19.5125 1.2026 19.5225 1.2026 19.5325C1.205 19.5525 1.205 19.57 1.2098 19.59C1.2122 19.605 1.217 19.62 1.2194 19.635C1.2242 19.65 1.229 19.6675 1.2338 19.6825L1.2554 19.7275C1.2626 19.7425 1.2674 19.755 1.277 19.77C1.2866 19.785 1.2986 19.7975 1.3082 19.8125C1.3154 19.8225 1.3202 19.8325 1.3298 19.84C1.3298 19.8425 1.3322 19.845 1.3346 19.8475C1.3466 19.86 1.361 19.87 1.3754 19.8825C1.385 19.8925 1.397 19.9025 1.4066 19.91C1.421 19.92 1.433 19.9275 1.4474 19.935C1.4618 19.9425 1.4738 19.9525 1.4882 19.9575C1.5026 19.965 1.517 19.9675 1.529 19.9725C1.5458 19.9775 1.5602 19.985 1.577 19.9875C1.5914 19.99 1.6058 19.9925 1.6178 19.9925L1.6706 20H22.3202C22.3538 20 22.385 19.9975 22.4162 19.99C22.4474 19.9825 22.4786 19.9725 22.5074 19.96C22.5146 19.9575 22.5218 19.9525 22.5266 19.95C22.5506 19.9375 22.5722 19.9275 22.5914 19.9125C22.601 19.905 22.6082 19.8975 22.6178 19.89C22.6346 19.875 22.6514 19.8625 22.6658 19.8475C22.6682 19.845 22.6706 19.8425 22.6706 19.84C22.6802 19.8325 22.685 19.82 22.6922 19.81C22.7042 19.7975 22.7138 19.785 22.7234 19.77C22.733 19.755 22.7378 19.74 22.745 19.725C22.7522 19.7125 22.7594 19.6975 22.7666 19.6825C22.7714 19.6675 22.7762 19.65 22.781 19.6325C22.7834 19.62 22.7882 19.605 22.7906 19.59C22.7954 19.57 22.7954 19.5525 22.7978 19.5325C22.7978 19.5225 22.8002 19.5125 22.8002 19.5V5.5C22.8002 5.4875 22.7978 5.4775 22.7978 5.4675ZM21.0986 6L12.0002 14.8175L2.9018 6H21.0986ZM2.1602 6.6475L8.1986 12.5L2.1602 18.3525V6.6475ZM2.9018 19L8.9042 13.1825L11.6738 15.865C11.765 15.955 11.8826 16 12.0002 16C12.1178 16 12.2354 15.955 12.3266 15.865L15.0962 13.1825L21.0986 19H2.9018ZM21.8402 18.3525L15.8018 12.5L21.8402 6.6475V18.3525Z" fill="black"/>
</svg>
