<svg width="20" height="20" viewBox="0 0 20 20" fill="none" xmlns="http://www.w3.org/2000/svg">
<path d="M16.3047 8.75H3.69531C3.03516 8.75 2.5 9.30859 2.5 10C2.5 10.6914 3.03516 11.25 3.69531 11.25H16.3047C16.9648 11.25 17.5 10.6914 17.5 10C17.5 9.30859 16.9648 8.75 16.3047 8.75ZM16.3047 3.75H3.69531C3.03516 3.75 2.5 4.30859 2.5 5C2.5 5.69141 3.03516 6.25 3.69531 6.25H16.3047C16.9648 6.25 17.5 5.69141 17.5 5C17.5 4.30859 16.9648 3.75 16.3047 3.75ZM16.3047 13.75H3.69531C3.03516 13.75 2.5 14.3086 2.5 15C2.5 15.6914 3.03516 16.25 3.69531 16.25H16.3047C16.9648 16.25 17.5 15.6914 17.5 15C17.5 14.3086 16.9648 13.75 16.3047 13.75Z" fill="#FEF3E2"/>
</svg>
