<svg width="18" height="20" viewBox="0 0 18 20" fill="none" xmlns="http://www.w3.org/2000/svg">
<path d="M14.25 9.18164H3.75C2.92157 9.18164 2.25 9.91427 2.25 10.818V16.5453C2.25 17.449 2.92157 18.1816 3.75 18.1816H14.25C15.0784 18.1816 15.75 17.449 15.75 16.5453V10.818C15.75 9.91427 15.0784 9.18164 14.25 9.18164Z" stroke="black" stroke-width="2" stroke-linecap="round" stroke-linejoin="round"/>
<path d="M5.25 9.18175V5.90902C5.25 4.82405 5.64509 3.78351 6.34835 3.01631C7.05161 2.24912 8.00544 1.81812 9 1.81812C9.99456 1.81812 10.9484 2.24912 11.6517 3.01631C12.3549 3.78351 12.75 4.82405 12.75 5.90902V9.18175" stroke="black" stroke-width="2" stroke-linecap="round" stroke-linejoin="round"/>
</svg>
