<svg width="17" height="17" viewBox="0 0 17 17" fill="none" xmlns="http://www.w3.org/2000/svg">
<path d="M12.4764 10.9897C13.5051 9.58563 13.9659 7.84486 13.7665 6.11563C13.5671 4.38641 12.7222 2.79624 11.4009 1.66328C10.0796 0.530315 8.37925 -0.061896 6.64009 0.00512612C4.90094 0.0721483 3.25122 0.793461 2.02098 2.02475C0.790735 3.25605 0.070705 4.90652 0.00493676 6.64597C-0.0608315 8.38541 0.532513 10.0856 1.66626 11.4063C2.80001 12.727 4.39055 13.5708 6.11968 13.769C7.84881 13.9672 9.589 13.5051 10.9921 12.4752H10.991C11.0222 12.5177 11.0569 12.5584 11.0952 12.5974L15.1856 16.6884C15.3849 16.8878 15.6551 16.9999 15.9369 17C16.2188 17.0001 16.4891 16.8882 16.6885 16.689C16.8878 16.4897 16.9999 16.2194 17 15.9376C17.0001 15.6557 16.8882 15.3853 16.689 15.1859L12.5985 11.0949C12.5606 11.0564 12.5197 11.0219 12.4764 10.9897ZM12.7505 6.90499C12.7505 7.67249 12.5993 8.43246 12.3057 9.14153C12.012 9.8506 11.5816 10.4949 11.0389 11.0376C10.4963 11.5803 9.85214 12.0108 9.14317 12.3045C8.4342 12.5982 7.67433 12.7493 6.90694 12.7493C6.13956 12.7493 5.37969 12.5982 4.67072 12.3045C3.96175 12.0108 3.31757 11.5803 2.77494 11.0376C2.23232 10.4949 1.80189 9.8506 1.50823 9.14153C1.21456 8.43246 1.06341 7.67249 1.06341 6.90499C1.06341 5.35498 1.67907 3.86844 2.77494 2.77241C3.87082 1.67638 5.35714 1.06064 6.90694 1.06064C8.45675 1.06064 9.94307 1.67638 11.0389 2.77241C12.1348 3.86844 12.7505 5.35498 12.7505 6.90499Z" fill="black"/>
</svg>
