<svg width="58" height="54" viewBox="0 0 58 54" fill="none" xmlns="http://www.w3.org/2000/svg">
<rect width="58" height="54" rx="27" fill="#FEF3E2"/>
<path d="M25.1 36.2125C23.8833 35.6875 22.825 34.975 21.925 34.075C21.025 33.175 20.3125 32.1167 19.7875 30.9C19.2625 29.6833 19 28.3833 19 27C19 25.6167 19.2625 24.3167 19.7875 23.1C20.3125 21.8833 21.025 20.825 21.925 19.925C22.825 19.025 23.8833 18.3125 25.1 17.7875C26.3167 17.2625 27.6167 17 29 17C30.3833 17 31.6833 17.2625 32.9 17.7875C34.1167 18.3125 35.175 19.025 36.075 19.925C36.975 20.825 37.6875 21.8833 38.2125 23.1C38.7375 24.3167 39 25.6167 39 27C39 28.3833 38.7375 29.6833 38.2125 30.9C37.6875 32.1167 36.975 33.175 36.075 34.075C35.175 34.975 34.1167 35.6875 32.9 36.2125C31.6833 36.7375 30.3833 37 29 37C27.6167 37 26.3167 36.7375 25.1 36.2125ZM34.675 32.675C36.225 31.125 37 29.2333 37 27C37 24.7667 36.225 22.875 34.675 21.325C33.125 19.775 31.2333 19 29 19C26.7667 19 24.875 19.775 23.325 21.325C21.775 22.875 21 24.7667 21 27C21 29.2333 21.775 31.125 23.325 32.675C24.875 34.225 26.7667 35 29 35C31.2333 35 33.125 34.225 34.675 32.675ZM24.75 31.25C23.5833 30.0833 23 28.6667 23 27C23 25.3333 23.5833 23.9167 24.75 22.75C25.9167 21.5833 27.3333 21 29 21C30.6667 21 32.0833 21.5833 33.25 22.75C34.4167 23.9167 35 25.3333 35 27C35 28.6667 34.4167 30.0833 33.25 31.25C32.0833 32.4167 30.6667 33 29 33C27.3333 33 25.9167 32.4167 24.75 31.25ZM31.825 29.825C32.6083 29.0417 33 28.1 33 27C33 25.9 32.6083 24.9583 31.825 24.175C31.0417 23.3917 30.1 23 29 23C27.9 23 26.9583 23.3917 26.175 24.175C25.3917 24.9583 25 25.9 25 27C25 28.1 25.3917 29.0417 26.175 29.825C26.9583 30.6083 27.9 31 29 31C30.1 31 31.0417 30.6083 31.825 29.825ZM27.5875 28.4125C27.1958 28.0208 27 27.55 27 27C27 26.45 27.1958 25.9792 27.5875 25.5875C27.9792 25.1958 28.45 25 29 25C29.55 25 30.0208 25.1958 30.4125 25.5875C30.8042 25.9792 31 26.45 31 27C31 27.55 30.8042 28.0208 30.4125 28.4125C30.0208 28.8042 29.55 29 29 29C28.45 29 27.9792 28.8042 27.5875 28.4125Z" fill="#1F0008"/>
</svg>
