<svg width="672" height="1024" viewBox="0 0 672 1024" fill="none" xmlns="http://www.w3.org/2000/svg">
<rect width="443" height="1024" fill="#770523"/>
<path fill-rule="evenodd" clip-rule="evenodd" d="M547.763 0L558.067 42.6667C570.089 85.3333 594.133 170.667 582.111 256C570.089 341.333 523.719 426.667 535.741 512C547.763 597.333 616.46 682.667 628.482 768C638.786 853.333 594.133 938.667 570.089 981.333L547.763 1024H443V981.333C443 938.667 443 853.333 443 768C443 682.667 443 597.333 443 512C443 426.667 443 341.333 443 256C443 170.667 443 85.3333 443 42.6667V0L547.763 0Z" fill="#770523"/>
</svg>
