<svg width="1440" height="90" viewBox="0 0 1440 90" fill="none" xmlns="http://www.w3.org/2000/svg">
<path fill-rule="evenodd" clip-rule="evenodd" d="M1440 3.57628e-06L1379.72 6.46552C1319.44 13.1897 1200 26.6379 1079.44 26.6379C960 26.6379 839.442 13.1897 720 9.82759C599.442 6.46552 480 13.1897 359.442 19.9138C240 26.6379 119.442 33.3621 60.279 36.7241L-7.15256e-05 39.8276V90H60.279C119.442 90 240 90 359.442 90C480 90 599.442 90 720 90C839.442 90 960 90 1079.44 90C1200 90 1319.44 90 1379.72 90H1440V3.57628e-06Z" fill="#FAD2E1"/>
</svg>
