<svg width="120" height="120" viewBox="0 0 120 120" fill="none" xmlns="http://www.w3.org/2000/svg">
<g clip-path="url(#clip0_959_180)">
<path d="M78.75 47.5C78.75 52.4728 76.7746 57.2419 73.2583 60.7583C69.7419 64.2746 64.9728 66.25 60 66.25C55.0272 66.25 50.2581 64.2746 46.7417 60.7583C43.2254 57.2419 41.25 52.4728 41.25 47.5C41.25 42.5272 43.2254 37.7581 46.7417 34.2417C50.2581 30.7254 55.0272 28.75 60 28.75C64.9728 28.75 69.7419 30.7254 73.2583 34.2417C76.7746 37.7581 78.75 42.5272 78.75 47.5Z" fill="black"/>
<path fill-rule="evenodd" clip-rule="evenodd" d="M10 60C10 46.7392 15.2678 34.0215 24.6447 24.6447C34.0215 15.2678 46.7392 10 60 10C73.2608 10 85.9785 15.2678 95.3553 24.6447C104.732 34.0215 110 46.7392 110 60C110 73.2608 104.732 85.9785 95.3553 95.3553C85.9785 104.732 73.2608 110 60 110C46.7392 110 34.0215 104.732 24.6447 95.3553C15.2678 85.9785 10 73.2608 10 60ZM60 16.25C51.7611 16.2504 43.6898 18.5773 36.715 22.9627C29.7402 27.3481 24.1455 33.6138 20.5748 41.0387C17.004 48.4636 15.6024 56.7459 16.5312 64.9322C17.4601 73.1186 20.6816 80.8763 25.825 87.3125C30.2625 80.1625 40.0312 72.5 60 72.5C79.9688 72.5 89.7313 80.1562 94.175 87.3125C99.3184 80.8763 102.54 73.1186 103.469 64.9322C104.398 56.7459 102.996 48.4636 99.4252 41.0387C95.8545 33.6138 90.2598 27.3481 83.285 22.9627C76.3102 18.5773 68.2389 16.2504 60 16.25Z" fill="black"/>
</g>
<defs>
<clipPath id="clip0_959_180">
<rect width="100" height="100" fill="white" transform="translate(10 10)"/>
</clipPath>
</defs>
</svg>
