<svg width="73" height="50" viewBox="0 0 73 50" fill="none" xmlns="http://www.w3.org/2000/svg">
<path d="M68.4375 50C68.4375 50 73 50 73 45.8333C73 41.6667 68.4375 29.1667 50.1875 29.1667C31.9375 29.1667 27.375 41.6667 27.375 45.8333C27.375 50 31.9375 50 31.9375 50H68.4375ZM32.0379 45.8333L31.9375 45.8167C31.9421 44.7167 32.6994 41.525 35.405 38.65C37.9235 35.9542 42.3491 33.3333 50.1875 33.3333C58.0213 33.3333 62.4469 35.9583 64.97 38.65C67.6756 41.525 68.4284 44.7208 68.4375 45.8167L68.401 45.825L68.3371 45.8333H32.0379ZM50.1875 20.8333C52.6076 20.8333 54.9286 19.9554 56.6398 18.3926C58.3511 16.8298 59.3125 14.7101 59.3125 12.5C59.3125 10.2899 58.3511 8.17025 56.6398 6.60744C54.9286 5.04464 52.6076 4.16667 50.1875 4.16667C47.7674 4.16667 45.4464 5.04464 43.7352 6.60744C42.0239 8.17025 41.0625 10.2899 41.0625 12.5C41.0625 14.7101 42.0239 16.8298 43.7352 18.3926C45.4464 19.9554 47.7674 20.8333 50.1875 20.8333ZM63.875 12.5C63.875 14.1415 63.521 15.767 62.8331 17.2835C62.1452 18.8001 61.137 20.1781 59.866 21.3388C58.595 22.4996 57.0861 23.4203 55.4255 24.0485C53.7648 24.6767 51.985 25 50.1875 25C48.39 25 46.6102 24.6767 44.9495 24.0485C43.2889 23.4203 41.78 22.4996 40.509 21.3388C39.238 20.1781 38.2298 18.8001 37.5419 17.2835C36.854 15.767 36.5 14.1415 36.5 12.5C36.5 9.18479 37.9421 6.00537 40.509 3.66117C43.0759 1.31696 46.5573 0 50.1875 0C53.8177 0 57.2991 1.31696 59.866 3.66117C62.4329 6.00537 63.875 9.18479 63.875 12.5ZM31.6455 30.3333C29.8194 29.8121 27.9385 29.4672 26.0336 29.3042C24.9631 29.2088 23.8881 29.1629 22.8125 29.1667C4.5625 29.1667 0 41.6667 0 45.8333C0 48.6111 1.52083 50 4.5625 50H23.798C23.1219 48.6991 22.7847 47.2731 22.8125 45.8333C22.8125 41.625 24.5326 37.325 27.7856 33.7333C28.8943 32.5083 30.1855 31.3625 31.6455 30.3333ZM22.4475 33.3333C19.7489 37.0394 18.2904 41.3828 18.25 45.8333H4.5625C4.5625 44.75 5.31075 41.5417 8.03 38.65C10.5166 36 14.8373 33.4167 22.4475 33.3375V33.3333ZM6.84375 14.5833C6.84375 11.2681 8.28582 8.0887 10.8527 5.7445C13.4196 3.40029 16.9011 2.08333 20.5312 2.08333C24.1614 2.08333 27.6429 3.40029 30.2098 5.7445C32.7767 8.0887 34.2187 11.2681 34.2188 14.5833C34.2188 17.8985 32.7767 21.078 30.2098 23.4222C27.6429 25.7664 24.1614 27.0833 20.5312 27.0833C16.9011 27.0833 13.4196 25.7664 10.8527 23.4222C8.28582 21.078 6.84375 17.8985 6.84375 14.5833ZM20.5312 6.25C18.1111 6.25 15.7902 7.12797 14.0789 8.69078C12.3676 10.2536 11.4063 12.3732 11.4062 14.5833C11.4063 16.7935 12.3676 18.9131 14.0789 20.4759C15.7902 22.0387 18.1111 22.9167 20.5312 22.9167C22.9514 22.9167 25.2723 22.0387 26.9836 20.4759C28.6949 18.9131 29.6562 16.7935 29.6562 14.5833C29.6562 12.3732 28.6949 10.2536 26.9836 8.69078C25.2723 7.12797 22.9514 6.25 20.5312 6.25Z" fill="#67635E"/>
</svg>
