<svg width="58" height="54" viewBox="0 0 58 54" fill="none" xmlns="http://www.w3.org/2000/svg">
<rect width="58" height="54" rx="27" fill="#FEF3E2"/>
<path d="M32.1875 30.1875C33.0625 29.3125 33.5 28.25 33.5 27C33.5 25.75 33.0625 24.6875 32.1875 23.8125C31.3125 22.9375 30.25 22.5 29 22.5C27.75 22.5 26.6875 22.9375 25.8125 23.8125C24.9375 24.6875 24.5 25.75 24.5 27C24.5 28.25 24.9375 29.3125 25.8125 30.1875C26.6875 31.0625 27.75 31.5 29 31.5C30.25 31.5 31.3125 31.0625 32.1875 30.1875ZM27.0875 28.9125C26.5625 28.3875 26.3 27.75 26.3 27C26.3 26.25 26.5625 25.6125 27.0875 25.0875C27.6125 24.5625 28.25 24.3 29 24.3C29.75 24.3 30.3875 24.5625 30.9125 25.0875C31.4375 25.6125 31.7 26.25 31.7 27C31.7 27.75 31.4375 28.3875 30.9125 28.9125C30.3875 29.4375 29.75 29.7 29 29.7C28.25 29.7 27.6125 29.4375 27.0875 28.9125ZM22.35 32.4625C20.35 31.1042 18.9 29.2833 18 27C18.9 24.7167 20.35 22.8958 22.35 21.5375C24.35 20.1792 26.5667 19.5 29 19.5C31.4333 19.5 33.65 20.1792 35.65 21.5375C37.65 22.8958 39.1 24.7167 40 27C39.1 29.2833 37.65 31.1042 35.65 32.4625C33.65 33.8208 31.4333 34.5 29 34.5C26.5667 34.5 24.35 33.8208 22.35 32.4625ZM34.1875 31.0125C35.7625 30.0208 36.9667 28.6833 37.8 27C36.9667 25.3167 35.7625 23.9792 34.1875 22.9875C32.6125 21.9958 30.8833 21.5 29 21.5C27.1167 21.5 25.3875 21.9958 23.8125 22.9875C22.2375 23.9792 21.0333 25.3167 20.2 27C21.0333 28.6833 22.2375 30.0208 23.8125 31.0125C25.3875 32.0042 27.1167 32.5 29 32.5C30.8833 32.5 32.6125 32.0042 34.1875 31.0125Z" fill="#1F0008"/>
</svg>
