<svg width="27" height="27" viewBox="0 0 27 27" fill="none" xmlns="http://www.w3.org/2000/svg">
<rect width="27" height="27" rx="5" fill="#FEF3E2"/>
<path d="M24.5 13.5C24.5 13.5 20.375 6 13.5 6C6.625 6 2.5 13.5 2.5 13.5C2.5 13.5 6.625 21 13.5 21C20.375 21 24.5 13.5 24.5 13.5ZM4.11287 13.5C4.7767 12.4972 5.54145 11.5637 6.39538 10.7141C8.165 8.95636 10.585 7.36364 13.5 7.36364C16.415 7.36364 18.8336 8.95636 20.606 10.7141C21.4599 11.5637 22.2247 12.4972 22.8885 13.5C22.8097 13.6182 22.7203 13.7491 22.6204 13.8927C22.1597 14.5473 21.4791 15.42 20.606 16.2859C18.8336 18.0436 16.4136 19.6364 13.5 19.6364C10.5864 19.6364 8.16638 18.0436 6.394 16.2859C5.54008 15.4363 4.7767 14.5028 4.11287 13.5Z" fill="black"/>
<path d="M13.5 10.8571C12.9317 10.8571 12.3866 11.0829 11.9848 11.4848C11.5829 11.8866 11.3571 12.4317 11.3571 13C11.3571 13.5683 11.5829 14.1134 11.9848 14.5152C12.3866 14.9171 12.9317 15.1429 13.5 15.1429C14.0683 15.1429 14.6134 14.9171 15.0152 14.5152C15.4171 14.1134 15.6429 13.5683 15.6429 13C15.6429 12.4317 15.4171 11.8866 15.0152 11.4848C14.6134 11.0829 14.0683 10.8571 13.5 10.8571ZM10.5 13C10.5 12.2044 10.8161 11.4413 11.3787 10.8787C11.9413 10.3161 12.7044 10 13.5 10C14.2956 10 15.0587 10.3161 15.6213 10.8787C16.1839 11.4413 16.5 12.2044 16.5 13C16.5 13.7956 16.1839 14.5587 15.6213 15.1213C15.0587 15.6839 14.2956 16 13.5 16C12.7044 16 11.9413 15.6839 11.3787 15.1213C10.8161 14.5587 10.5 13.7956 10.5 13Z" fill="black"/>
</svg>
