<svg width="25" height="18" viewBox="0 0 25 18" fill="none" xmlns="http://www.w3.org/2000/svg">
<g clip-path="url(#clip0_863_513)">
<rect width="25" height="18" fill="white"/>
<rect x="-1" y="-4.5" width="27" height="27" rx="5" fill="white"/>
<g clip-path="url(#clip1_863_513)">
<path d="M22.5 9C22.5 9 18.75 1.5 12.5 1.5C6.25 1.5 2.5 9 2.5 9C2.5 9 6.25 16.5 12.5 16.5C18.75 16.5 22.5 9 22.5 9ZM3.96625 9C4.56973 7.99716 5.26496 7.06374 6.04125 6.21409C7.65 4.45636 9.85 2.86364 12.5 2.86364C15.15 2.86364 17.3488 4.45636 18.96 6.21409C19.7363 7.06374 20.4315 7.99716 21.035 9C20.9633 9.11818 20.8821 9.24909 20.7913 9.39273C20.3725 10.0473 19.7537 10.92 18.96 11.7859C17.3488 13.5436 15.1488 15.1364 12.5 15.1364C9.85125 15.1364 7.65125 13.5436 6.04 11.7859C5.26371 10.9363 4.56973 10.0028 3.96625 9Z" fill="black"/>
<path d="M12.5 6.85714C11.9317 6.85714 11.3866 7.08291 10.9848 7.48477C10.5829 7.88663 10.3571 8.43168 10.3571 9C10.3571 9.56832 10.5829 10.1134 10.9848 10.5152C11.3866 10.9171 11.9317 11.1429 12.5 11.1429C13.0683 11.1429 13.6134 10.9171 14.0152 10.5152C14.4171 10.1134 14.6429 9.56832 14.6429 9C14.6429 8.43168 14.4171 7.88663 14.0152 7.48477C13.6134 7.08291 13.0683 6.85714 12.5 6.85714ZM9.5 9C9.5 8.20435 9.81607 7.44129 10.3787 6.87868C10.9413 6.31607 11.7044 6 12.5 6C13.2956 6 14.0587 6.31607 14.6213 6.87868C15.1839 7.44129 15.5 8.20435 15.5 9C15.5 9.79565 15.1839 10.5587 14.6213 11.1213C14.0587 11.6839 13.2956 12 12.5 12C11.7044 12 10.9413 11.6839 10.3787 11.1213C9.81607 10.5587 9.5 9.79565 9.5 9Z" fill="black"/>
</g>
</g>
<defs>
<clipPath id="clip0_863_513">
<rect width="25" height="18" fill="white"/>
</clipPath>
<clipPath id="clip1_863_513">
<rect width="20" height="17" fill="white" transform="translate(2.5 0.5)"/>
</clipPath>
</defs>
</svg>
